<?xml version="1.0" encoding="UTF-8"?>
<svg width="22px" height="18px" viewBox="0 0 22 18" version="1.1" xmlns="http://www.w3.org/2000/svg" xmlns:xlink="http://www.w3.org/1999/xlink">
    <!-- Generator: Sketch 52.6 (67491) - http://www.bohemiancoding.com/sketch -->
    <title>Group 9</title>
    <desc>Created with Sketch.</desc>
    <g id="Page-1" stroke="none" stroke-width="1" fill="none" fill-rule="evenodd" stroke-linejoin="bevel">
        <g id="chat" transform="translate(-535.000000, -908.000000)" stroke="#ADADAD">
            <g id="Group-7" transform="translate(515.000000, 883.000000)">
                <g id="Group-9" transform="translate(21.000000, 25.000000)">
                    <g id="Page-1" transform="translate(0.485916, 0.570418)">
                        <polyline id="Stroke-1" points="-5.68434189e-14 16.4337455 2.36658272e-29 2.90384759 4.67545436 2.90384759 6.56081486 0 13.3992411 0 15.2856002 2.90384759 20 2.90384759 20 15.9629859 3.49791981 15.9629859"></polyline>
                        <path d="M14,9 C14,6.7902923 12.2094676,5 9.99946359,5 C7.7916052,5 6,6.7902923 6,9 C6,11.2097077 7.7916052,13 9.99946359,13 C12.2094676,13 14,11.2097077 14,9 Z" id="Stroke-3"></path>
                        <path d="M11,7.3521226 C10.1878455,6.78499681 9.02057466,6.91661645 8.39080628,7.64826678 C7.76103789,8.37991712 7.90801961,9.43190642 8.71910121,10" id="Stroke-5"></path>
                        <path d="M15,5 L18,5" id="Stroke-7"></path>
                    </g>
                </g>
            </g>
        </g>
    </g>
</svg>