<?xml version="1.0" encoding="UTF-8"?>
<svg width="65px" height="17px" viewBox="0 0 65 17" version="1.1" xmlns="http://www.w3.org/2000/svg" xmlns:xlink="http://www.w3.org/1999/xlink">
    <!-- Generator: Sketch 52.6 (67491) - http://www.bohemiancoding.com/sketch -->
    <title>logo</title>
    <desc>Created with Sketch.</desc>
    <defs>
        <polygon id="path-1" points="64.6647864 16.294964 56.5692989 16.294964 56.5692989 4.37582242 64.6647864 4.37582242"></polygon>
    </defs>
    <g id="Page-1" stroke="none" stroke-width="1" fill="none" fill-rule="evenodd">
        <g id="chat" transform="translate(-32.000000, -15.000000)">
            <g id="logo" transform="translate(32.000000, 15.000000)">
                <g id="Group-18">
                    <path d="M0,4.66759174 L2.45391643,4.66759174 L2.45391643,6.09496404 C2.71925348,5.5323724 3.07231421,5.10518295 3.51291811,4.81339569 C3.9533415,4.52178778 4.43564123,4.37580448 4.95999777,4.37580448 C5.33038663,4.37580448 5.71846462,4.47318646 6.12405125,4.66759174 L5.23255487,7.11595042 C4.89718329,6.94934295 4.62083565,6.86594954 4.40423398,6.86594954 C3.96381058,6.86594954 3.59143621,7.13693327 3.28747187,7.67854207 C2.98332702,8.22050954 2.83134485,9.28310295 2.83134485,10.866681 L2.84181393,11.4190502 L2.84181393,16.0031768 L0,16.0031768 L0,4.66759174 Z" id="Fill-1" fill="#2A51E0"></path>
                    <path d="M13.6534142,7.05348607 C12.7640838,7.05348607 12.0234866,7.36087596 11.431803,7.97565574 C10.8399389,8.59025618 10.5442777,9.37684431 10.5442777,10.3354201 C10.5442777,11.3217938 10.8366899,12.1205771 11.4213339,12.7315907 C12.0059779,13.342963 12.7465752,13.6485595 13.6429451,13.6485595 C14.5391345,13.6485595 15.2849662,13.3395555 15.8802598,12.7213683 C16.4753729,12.103181 16.7730197,11.3079845 16.7730197,10.3354201 C16.7730197,9.36303508 16.4806075,8.57303947 15.8959635,7.96507464 C15.3113194,7.35728914 14.5636827,7.05348607 13.6534142,7.05348607 M13.6061228,4.37575068 C14.6826331,4.37575068 15.6947044,4.64350629 16.6419757,5.17812079 C17.589247,5.71291464 18.3284002,6.43870629 18.8597963,7.35567508 C19.3910119,8.27246453 19.65671,9.26224563 19.65671,10.3250184 C19.65671,11.3946061 19.3892069,12.3947889 18.8545618,13.3255669 C18.3199167,14.256345 17.5908715,14.98393 16.6681484,15.5083221 C15.7454253,16.0325349 14.7282999,16.2949102 13.6167724,16.2949102 C11.9808882,16.2949102 10.584349,15.716716 9.42751554,14.560148 C8.27050162,13.4037595 7.69217515,11.9989841 7.69217515,10.3458219 C7.69217515,8.5744742 8.34559019,7.09867991 9.65296178,5.91790101 C10.7993261,4.89009969 12.1171668,4.37575068 13.6061228,4.37575068" id="Fill-3" fill="#2A51E0"></path>
                    <path d="M28.1088682,7.05348607 C27.2195378,7.05348607 26.4789406,7.36087596 25.887257,7.97565574 C25.295393,8.59025618 24.9997317,9.37684431 24.9997317,10.3354201 C24.9997317,11.3217938 25.292144,12.1205771 25.876788,12.7315907 C26.461432,13.342963 27.2020292,13.6485595 28.0983991,13.6485595 C28.9945885,13.6485595 29.7404203,13.3395555 30.3357139,12.7213683 C30.930827,12.103181 31.2284738,11.3079845 31.2284738,10.3354201 C31.2284738,9.36303508 30.9360615,8.57303947 30.3514175,7.96507464 C29.7667735,7.35728914 29.0191367,7.05348607 28.1088682,7.05348607 M28.0615768,4.37575068 C29.1380871,4.37575068 30.1501584,4.64350629 31.0974297,5.17812079 C32.0447011,5.71291464 32.7838543,6.43870629 33.3152504,7.35567508 C33.846466,8.27246453 34.112164,9.26224563 34.112164,10.3250184 C34.112164,11.3946061 33.8446609,12.3947889 33.3100158,13.3255669 C32.7753707,14.256345 32.0463256,14.98393 31.1236025,15.5083221 C30.2008793,16.0325349 29.183754,16.2949102 28.0722264,16.2949102 C26.4363423,16.2949102 25.039803,15.716716 23.8829696,14.560148 C22.7259557,13.4037595 22.1476292,11.9989841 22.1476292,10.3458219 C22.1476292,8.5744742 22.8010442,7.09867991 24.1084158,5.91790101 C25.2547802,4.89009969 26.5726208,4.37575068 28.0615768,4.37575068" id="Fill-5" fill="#2A51E0"></path>
                    <path d="M35.7956825,4.66759174 L36.8128078,4.66759174 C36.8196669,3.18139569 36.8443955,2.30244712 36.8862719,2.03164273 C36.9631655,1.40646119 37.2270585,0.911660308 37.677951,0.546881407 C38.1288435,0.182281846 38.7667354,7.17362636e-05 39.5916267,7.17362636e-05 C40.1856568,7.17362636e-05 40.8569415,0.135473934 41.6051198,0.40627833 L41.6051198,2.57343086 C41.1923131,2.4554247 40.853512,2.39624229 40.5878139,2.39624229 C40.2522618,2.39624229 40.0075019,2.46582646 39.8537148,2.60463613 C39.7418039,2.70883305 39.686029,2.92422119 39.686029,3.25080053 L39.6755599,4.66759174 L41.4895989,4.66759174 L41.4895989,7.07434338 L39.6755599,7.07434338 L39.6755599,16.0031768 L36.8128078,16.0031768 L36.8128078,7.07434338 L35.7956825,7.07434338 L35.7956825,4.66759174 Z" id="Fill-7" fill="#2A51E0"></path>
                    <path d="M43.8650153,4.66759174 L46.7591746,4.66759174 L46.7591746,10.1269007 C46.7591746,11.1896735 46.8326387,11.9278396 46.9799278,12.3410405 C47.1270364,12.7544207 47.3636738,13.0756199 47.6894788,13.3046379 C48.0152838,13.5338353 48.4165384,13.6486133 48.8930621,13.6486133 C49.3695857,13.6486133 49.7742699,13.5356287 50.1072949,13.3098388 C50.4401395,13.0844076 50.6870654,12.752448 50.8482531,12.3150361 C50.9675646,11.9884568 51.02713,11.2904629 51.02713,10.2208753 L51.02713,4.66759174 L53.8897016,4.66759174 L53.8897016,9.47051393 C53.8897016,11.4500761 53.7324849,12.8046361 53.417871,13.5338353 C53.033403,14.4230062 52.4669896,15.1055768 51.7191724,15.5811882 C50.9709941,16.056979 50.0204738,16.294964 48.8668894,16.294964 C47.6154732,16.294964 46.6035824,16.016986 45.8312169,15.461568 C45.0584905,14.9057913 44.5151813,14.1313983 44.2005674,13.1380304 C43.9767456,12.450259 43.8650153,11.2002546 43.8650153,9.38729987 L43.8650153,4.66759174 Z" id="Fill-9" fill="#2A51E0"></path>
                    <mask id="mask-2" fill="white">
                        <use xlink:href="#path-1"></use>
                    </mask>
                    <g id="Clip-12"></g>
                    <path d="M64.4550438,6.25118769 L62.6828811,8.01195429 C61.9626806,7.30355868 61.309085,6.94936088 60.721914,6.94936088 C60.4002605,6.94936088 60.1488221,7.01715165 59.9670572,7.15237451 C59.7851118,7.28795604 59.6943196,7.45653626 59.6943196,7.65775648 C59.6943196,7.81055473 59.7518995,7.9511578 59.8674204,8.07974505 C59.9827608,8.20833231 60.267592,8.38372747 60.721914,8.60593055 L61.7706271,9.12673582 C62.8751151,9.6687033 63.6335819,10.2208932 64.0460276,10.7833055 C64.4586538,11.3458971 64.6647864,12.0060501 64.6647864,12.763047 C64.6647864,13.7702242 64.2925925,14.6106145 63.5480243,15.284218 C62.8036365,15.9581802 61.8054638,16.294982 60.5542282,16.294982 C58.8903664,16.294982 57.5620566,15.6488176 56.5692989,14.3570268 L58.331173,12.4502769 C58.6667251,12.8394462 59.0598572,13.153651 59.5107496,13.3932501 C59.9616421,13.6328492 60.3618137,13.7526488 60.7116254,13.7526488 C61.0890538,13.7526488 61.3930182,13.6624404 61.6236989,13.4818444 C61.8545602,13.3014277 61.9697201,13.0928545 61.9697201,12.8566629 C61.9697201,12.6604642 61.0724477,11.7508484 60.721914,11.5752738 L59.7573145,11.0960756 C57.9116878,10.1722919 56.9889647,9.01572396 56.9889647,7.62655121 C56.9889647,6.73056527 57.3364299,5.96460132 58.0322627,5.32919736 C58.7279151,4.69361407 59.6172455,4.37582242 60.7009758,4.37582242 C61.441934,4.37582242 62.1392109,4.53722901 62.792987,4.86040088 C63.4465825,5.18339341 64.0005413,5.64698901 64.4550438,6.25118769" id="Fill-11" fill="#2A51E0" mask="url(#mask-2)"></path>
                </g>
            </g>
        </g>
    </g>
</svg>