<?xml version="1.0" encoding="UTF-8"?>
<svg width="23px" height="7px" viewBox="0 0 23 7" version="1.1" xmlns="http://www.w3.org/2000/svg" xmlns:xlink="http://www.w3.org/1999/xlink">
    <!-- Generator: Sketch 52.6 (67491) - http://www.bohemiancoding.com/sketch -->
    <title>Group 8</title>
    <desc>Created with Sketch.</desc>
    <g id="Page-1" stroke="none" stroke-width="1" fill="none" fill-rule="evenodd">
        <g id="chat" transform="translate(-477.000000, -222.000000)" stroke="#787A7C">
            <g id="Group-8" transform="translate(478.000000, 223.000000)">
                <path d="M18.5,5 C19.8807119,5 21,3.88071187 21,2.5 C21,1.11928813 19.8807119,0 18.5,0 C17.1192881,0 16,1.11928813 16,2.5 C16,3.88071187 17.1192881,5 18.5,5 Z" id="Oval-4"></path>
                <path d="M10.5,5 C11.8807119,5 13,3.88071187 13,2.5 C13,1.11928813 11.8807119,0 10.5,0 C9.11928813,0 8,1.11928813 8,2.5 C8,3.88071187 9.11928813,5 10.5,5 Z" id="Oval-4"></path>
                <path d="M2.5,5 C3.88071187,5 5,3.88071187 5,2.5 C5,1.11928813 3.88071187,0 2.5,0 C1.11928813,0 0,1.11928813 0,2.5 C0,3.88071187 1.11928813,5 2.5,5 Z" id="Oval-4"></path>
            </g>
        </g>
    </g>
</svg>